dataset
version=1
nRows=28
nColumns=39
inDegrees=no
endheader
time	sternoclavicular_r2	sternoclavicular_r3	unrotscap_r3	unrotscap_r2	acromioclavicular_r2	acromioclavicular_r3	acromioclavicular_r1	unrothum_r1	unrothum_r3	unrothum_r2	elv_angle	shoulder_elv	shoulder1_r2	shoulder_rot	elbow_flexion	pro_sup	deviation	flexion	cmc_abduction	cmc_flexion	mp_flexion	ip_flexion	mcp2_flexion	mcp2_abduction	pm2_flexion	md2_flexion	mcp3_flexion	mcp3_abduction	pm3_flexion	md3_flexion	mcp4_flexion	mcp4_abduction	pm4_flexion	md4_flexion	mcp5_flexion	mcp5_abduction	pm5_flexion	md5_flexion
3.750000	-0.019834	-0.335191	0.174061	0.096871	0.037169	0.288562	-0.045346	0.016111	0.213833	0.035152	0.088972	0.027437	0.146525	0.146525	2.214911	1.283938	0.000000	0.000000	0.000000	0.000000	0.000000	0.000000	0.000000	0.000000	0.000000	0.000000	0.000000	0.000000	0.000000	0.000000	0.000000	0.000000	0.000000	0.000000	0.000000	0.000000	0.000000	0.000000
3.755000	-0.019821	-0.335238	0.174095	0.096896	0.037188	0.288592	-0.045363	0.016174	0.213806	0.035151	0.088973	0.027437	0.146525	0.146525	2.214909	1.283991	0.000000	0.000000	0.000000	0.000000	0.000000	0.000000	0.000000	0.000000	0.000000	0.000000	0.000000	0.000000	0.000000	0.000000	0.000000	0.000000	0.000000	0.000000	0.000000	0.000000	0.000000	0.000000
3.760000	-0.019808	-0.335287	0.174129	0.096924	0.037214	0.288609	-0.045388	0.016234	0.213765	0.035159	0.088979	0.027437	0.146525	0.146525	2.214893	1.284044	0.000000	0.000000	0.000000	0.000000	0.000000	0.000000	0.000000	0.000000	0.000000	0.000000	0.000000	0.000000	0.000000	0.000000	0.000000	0.000000	0.000000	0.000000	0.000000	0.000000	0.000000	0.000000
3.765000	-0.019795	-0.335336	0.174162	0.096956	0.037246	0.288610	-0.045421	0.016288	0.213709	0.035178	0.088988	0.027437	0.146525	0.146525	2.214864	1.284097	0.000000	0.000000	0.000000	0.000000	0.000000	0.000000	0.000000	0.000000	0.000000	0.000000	0.000000	0.000000	0.000000	0.000000	0.000000	0.000000	0.000000	0.000000	0.000000	0.000000	0.000000	0.000000
3.770000	-0.019783	-0.335386	0.174193	0.096991	0.037286	0.288594	-0.045464	0.016338	0.213636	0.035208	0.089003	0.027437	0.146525	0.146525	2.214819	1.284151	0.000000	0.000000	0.000000	0.000000	0.000000	0.000000	0.000000	0.000000	0.000000	0.000000	0.000000	0.000000	0.000000	0.000000	0.000000	0.000000	0.000000	0.000000	0.000000	0.000000	0.000000	0.000000
3.775000	-0.019771	-0.335437	0.174223	0.097030	0.037333	0.288561	-0.045516	0.016381	0.213546	0.035250	0.089023	0.027437	0.146525	0.146525	2.214758	1.284204	0.000000	0.000000	0.000000	0.000000	0.000000	0.000000	0.000000	0.000000	0.000000	0.000000	0.000000	0.000000	0.000000	0.000000	0.000000	0.000000	0.000000	0.000000	0.000000	0.000000	0.000000	0.000000
3.780000	-0.019761	-0.335488	0.174253	0.097073	0.037388	0.288510	-0.045579	0.016417	0.213438	0.035305	0.089048	0.027437	0.146525	0.146525	2.214679	1.284258	0.000000	0.000000	0.000000	0.000000	0.000000	0.000000	0.000000	0.000000	0.000000	0.000000	0.000000	0.000000	0.000000	0.000000	0.000000	0.000000	0.000000	0.000000	0.000000	0.000000	0.000000	0.000000
3.785000	-0.019751	-0.335539	0.174280	0.097121	0.037452	0.288438	-0.045653	0.016445	0.213312	0.035373	0.089080	0.027437	0.146525	0.146525	2.214581	1.284313	0.000000	0.000000	0.000000	0.000000	0.000000	0.000000	0.000000	0.000000	0.000000	0.000000	0.000000	0.000000	0.000000	0.000000	0.000000	0.000000	0.000000	0.000000	0.000000	0.000000	0.000000	0.000000
3.790000	-0.019742	-0.335590	0.174307	0.097172	0.037524	0.288346	-0.045739	0.016466	0.213166	0.035456	0.089119	0.027437	0.146525	0.146525	2.214463	1.284367	0.000000	0.000000	0.000000	0.000000	0.000000	0.000000	0.000000	0.000000	0.000000	0.000000	0.000000	0.000000	0.000000	0.000000	0.000000	0.000000	0.000000	0.000000	0.000000	0.000000	0.000000	0.000000
3.795000	-0.019734	-0.335642	0.174332	0.097229	0.037606	0.288233	-0.045836	0.016477	0.212999	0.035555	0.089164	0.027437	0.146525	0.146525	2.214323	1.284423	0.000000	0.000000	0.000000	0.000000	0.000000	0.000000	0.000000	0.000000	0.000000	0.000000	0.000000	0.000000	0.000000	0.000000	0.000000	0.000000	0.000000	0.000000	0.000000	0.000000	0.000000	0.000000
3.800000	-0.019727	-0.335694	0.174356	0.097290	0.037698	0.288096	-0.045947	0.016479	0.212812	0.035669	0.089217	0.027437	0.146525	0.146525	2.214160	1.284479	0.000000	0.000000	0.000000	0.000000	0.000000	0.000000	0.000000	0.000000	0.000000	0.000000	0.000000	0.000000	0.000000	0.000000	0.000000	0.000000	0.000000	0.000000	0.000000	0.000000	0.000000	0.000000
3.805000	-0.019721	-0.335746	0.174378	0.097356	0.037799	0.287936	-0.046071	0.016470	0.212603	0.035801	0.089277	0.027437	0.146525	0.146525	2.213972	1.284535	0.000000	0.000000	0.000000	0.000000	0.000000	0.000000	0.000000	0.000000	0.000000	0.000000	0.000000	0.000000	0.000000	0.000000	0.000000	0.000000	0.000000	0.000000	0.000000	0.000000	0.000000	0.000000
3.810000	-0.019716	-0.335798	0.174398	0.097427	0.037911	0.287750	-0.046209	0.016450	0.212371	0.035950	0.089346	0.027437	0.146525	0.146525	2.213758	1.284593	0.000000	0.000000	0.000000	0.000000	0.000000	0.000000	0.000000	0.000000	0.000000	0.000000	0.000000	0.000000	0.000000	0.000000	0.000000	0.000000	0.000000	0.000000	0.000000	0.000000	0.000000	0.000000
3.815000	-0.019713	-0.335850	0.174418	0.097504	0.038034	0.287539	-0.046361	0.016418	0.212117	0.036117	0.089424	0.027437	0.146525	0.146525	2.213516	1.284651	0.000000	0.000000	0.000000	0.000000	0.000000	0.000000	0.000000	0.000000	0.000000	0.000000	0.000000	0.000000	0.000000	0.000000	0.000000	0.000000	0.000000	0.000000	0.000000	0.000000	0.000000	0.000000
3.820000	-0.019711	-0.335902	0.174435	0.097587	0.038168	0.287302	-0.046529	0.016373	0.211838	0.036305	0.089511	0.027437	0.146525	0.146525	2.213245	1.284710	0.000000	0.000000	0.000000	0.000000	0.000000	0.000000	0.000000	0.000000	0.000000	0.000000	0.000000	0.000000	0.000000	0.000000	0.000000	0.000000	0.000000	0.000000	0.000000	0.000000	0.000000	0.000000
3.825000	-0.019710	-0.335954	0.174452	0.097675	0.038314	0.287036	-0.046713	0.016315	0.211535	0.036512	0.089608	0.027437	0.146525	0.146525	2.212944	1.284770	0.000000	0.000000	0.000000	0.000000	0.000000	0.000000	0.000000	0.000000	0.000000	0.000000	0.000000	0.000000	0.000000	0.000000	0.000000	0.000000	0.000000	0.000000	0.000000	0.000000	0.000000	0.000000
3.830000	-0.019711	-0.336006	0.174467	0.097769	0.038472	0.286742	-0.046914	0.016242	0.211208	0.036740	0.089715	0.027437	0.146525	0.146525	2.212610	1.284831	0.000000	0.000000	0.000000	0.000000	0.000000	0.000000	0.000000	0.000000	0.000000	0.000000	0.000000	0.000000	0.000000	0.000000	0.000000	0.000000	0.000000	0.000000	0.000000	0.000000	0.000000	0.000000
3.835000	-0.019714	-0.336057	0.174480	0.097870	0.038643	0.286419	-0.047132	0.016155	0.210854	0.036991	0.089833	0.027437	0.146525	0.146525	2.212242	1.284893	0.000000	0.000000	0.000000	0.000000	0.000000	0.000000	0.000000	0.000000	0.000000	0.000000	0.000000	0.000000	0.000000	0.000000	0.000000	0.000000	0.000000	0.000000	0.000000	0.000000	0.000000	0.000000
3.840000	-0.019718	-0.336108	0.174493	0.097977	0.038827	0.286065	-0.047367	0.016052	0.210474	0.037264	0.089961	0.027437	0.146525	0.146525	2.211838	1.284957	0.000000	0.000000	0.000000	0.000000	0.000000	0.000000	0.000000	0.000000	0.000000	0.000000	0.000000	0.000000	0.000000	0.000000	0.000000	0.000000	0.000000	0.000000	0.000000	0.000000	0.000000	0.000000
3.845000	-0.019724	-0.336159	0.174504	0.098091	0.039024	0.285680	-0.047621	0.015932	0.210068	0.037560	0.090102	0.027437	0.146525	0.146525	2.211398	1.285021	0.000000	0.000000	0.000000	0.000000	0.000000	0.000000	0.000000	0.000000	0.000000	0.000000	0.000000	0.000000	0.000000	0.000000	0.000000	0.000000	0.000000	0.000000	0.000000	0.000000	0.000000	0.000000
3.850000	-0.019732	-0.336210	0.174515	0.098211	0.039235	0.285264	-0.047894	0.015796	0.209634	0.037880	0.090254	0.027437	0.146525	0.146525	2.210918	1.285088	0.000000	0.000000	0.000000	0.000000	0.000000	0.000000	0.000000	0.000000	0.000000	0.000000	0.000000	0.000000	0.000000	0.000000	0.000000	0.000000	0.000000	0.000000	0.000000	0.000000	0.000000	0.000000
3.855000	-0.019741	-0.336261	0.174524	0.098339	0.039459	0.284814	-0.048187	0.015642	0.209173	0.038225	0.090418	0.027437	0.146525	0.146525	2.210398	1.285155	0.000000	0.000000	0.000000	0.000000	0.000000	0.000000	0.000000	0.000000	0.000000	0.000000	0.000000	0.000000	0.000000	0.000000	0.000000	0.000000	0.000000	0.000000	0.000000	0.000000	0.000000	0.000000
3.860000	-0.019752	-0.336311	0.174533	0.098474	0.039698	0.284332	-0.048500	0.015469	0.208683	0.038596	0.090596	0.027437	0.146525	0.146525	2.209835	1.285224	0.000000	0.000000	0.000000	0.000000	0.000000	0.000000	0.000000	0.000000	0.000000	0.000000	0.000000	0.000000	0.000000	0.000000	0.000000	0.000000	0.000000	0.000000	0.000000	0.000000	0.000000	0.000000
3.865000	-0.019765	-0.336362	0.174542	0.098617	0.039952	0.283816	-0.048834	0.015278	0.208165	0.038992	0.090786	0.027437	0.146525	0.146525	2.209228	1.285295	0.000000	0.000000	0.000000	0.000000	0.000000	0.000000	0.000000	0.000000	0.000000	0.000000	0.000000	0.000000	0.000000	0.000000	0.000000	0.000000	0.000000	0.000000	0.000000	0.000000	0.000000	0.000000
3.870000	-0.019780	-0.336412	0.174550	0.098767	0.040221	0.283265	-0.049189	0.015068	0.207617	0.039416	0.090990	0.027437	0.146525	0.146525	2.208575	1.285368	0.000000	0.000000	0.000000	0.000000	0.000000	0.000000	0.000000	0.000000	0.000000	0.000000	0.000000	0.000000	0.000000	0.000000	0.000000	0.000000	0.000000	0.000000	0.000000	0.000000	0.000000	0.000000
3.875000	-0.019796	-0.336463	0.174559	0.098926	0.040506	0.282679	-0.049566	0.014837	0.207040	0.039866	0.091208	0.027437	0.146525	0.146525	2.207875	1.285442	0.000000	0.000000	0.000000	0.000000	0.000000	0.000000	0.000000	0.000000	0.000000	0.000000	0.000000	0.000000	0.000000	0.000000	0.000000	0.000000	0.000000	0.000000	0.000000	0.000000	0.000000	0.000000
3.880000	-0.019814	-0.336515	0.174567	0.099092	0.040806	0.282058	-0.049966	0.014586	0.206433	0.040345	0.091441	0.027437	0.146525	0.146525	2.207125	1.285518	0.000000	0.000000	0.000000	0.000000	0.000000	0.000000	0.000000	0.000000	0.000000	0.000000	0.000000	0.000000	0.000000	0.000000	0.000000	0.000000	0.000000	0.000000	0.000000	0.000000	0.000000	0.000000
3.885000	-0.019834	-0.336566	0.174576	0.099267	0.041122	0.281401	-0.050388	0.014315	0.205797	0.040852	0.091688	0.027437	0.146525	0.146525	2.206323	1.285596	0.000000	0.000000	0.000000	0.000000	0.000000	0.000000	0.000000	0.000000	0.000000	0.000000	0.000000	0.000000	0.000000	0.000000	0.000000	0.000000	0.000000	0.000000	0.000000	0.000000	0.000000	0.000000
